<svg width="24" height="23" viewBox="0 0 24 23" fill="none" xmlns="http://www.w3.org/2000/svg">
<path d="M11.9705 0.0703125C14.3276 0.0703125 16.6847 0.0703125 19.0418 0.0703125C19.9847 0.0703125 20.8474 0.245916 21.3494 1.17815C21.5374 1.50073 21.6408 1.8656 21.65 2.23885C21.65 2.67137 21.65 3.10272 21.65 3.53525C21.65 4.35081 21.65 4.35081 22.4573 4.42506C23.6205 4.53113 24.3771 5.95717 23.8043 6.9778C23.7607 7.06611 23.6904 7.13852 23.6035 7.18485C23.5165 7.23118 23.4172 7.24911 23.3196 7.2361C23.2219 7.2231 23.1308 7.17982 23.059 7.11235C22.9872 7.04488 22.9383 6.95661 22.9193 6.85994C22.8845 6.64693 22.8726 6.43081 22.8839 6.21527C22.9098 5.67668 22.6482 5.47868 22.132 5.494C21.7784 5.50343 21.6264 5.6425 21.65 5.99135C21.6606 6.1481 21.65 6.30602 21.65 6.46277C21.65 10.4093 21.65 14.3559 21.65 18.3025C21.65 19.3691 21.4237 19.6826 20.3795 19.9654C20.0636 20.0503 19.9693 20.2117 19.9752 20.5028C19.9752 20.8564 19.987 21.21 19.967 21.5635C19.959 21.8807 19.8384 22.1847 19.6268 22.4212C19.4152 22.6576 19.1264 22.8111 18.812 22.854C18.2878 22.9398 17.7539 22.9498 17.2269 22.8835C16.3642 22.7763 15.954 22.3143 15.9305 21.428C15.921 21.0945 15.921 20.7598 15.9305 20.4262C15.9305 20.1304 15.7949 19.9961 15.5026 19.9961C13.1455 19.9961 10.7884 19.9961 8.43134 19.9961C8.10606 19.9961 7.96934 20.1434 7.97759 20.4675C7.98584 20.7916 7.98584 21.1357 7.97759 21.4693C7.94459 22.319 7.53564 22.7786 6.7024 22.8835C6.17566 22.9523 5.64172 22.9444 5.11725 22.8599C4.80265 22.8214 4.5118 22.6728 4.29614 22.4406C4.08047 22.2083 3.95386 21.9072 3.9387 21.5906C3.92921 21.473 3.92921 21.3547 3.9387 21.2371C3.99409 20.5429 4.00706 19.9654 3.05125 19.8016C2.40069 19.6837 2.25455 19.0332 2.25691 18.3873C2.26752 14.4404 2.25691 10.4911 2.25691 6.54763C2.25691 6.39088 2.2463 6.23295 2.25691 6.07621C2.28637 5.69907 2.17677 5.47868 1.73953 5.49518C1.33646 5.50932 1.03829 5.59771 1.0324 6.07385C1.03462 6.32854 1.02202 6.58314 0.994682 6.83637C0.983459 6.94793 0.930686 7.0512 0.846845 7.12565C0.763004 7.2001 0.654228 7.2403 0.542119 7.23826C0.482558 7.24526 0.422196 7.24017 0.364652 7.22328C0.307107 7.20639 0.253564 7.17806 0.207232 7.13998C0.1609 7.10191 0.122734 7.05487 0.09502 7.00168C0.0673062 6.9485 0.0506158 6.89027 0.0459493 6.83048C-0.0990124 5.69082 0.0105928 4.44156 1.72067 4.43095C2.14023 4.43095 2.26634 4.24238 2.2522 3.85346C2.23452 3.32311 2.23805 2.79276 2.2522 2.26359C2.28402 1.08504 3.03004 0.273023 4.19798 0.131597C4.51091 0.0947387 4.82573 0.0762431 5.14082 0.0762053C7.41621 0.0722768 9.69278 0.0703125 11.9705 0.0703125ZM11.954 4.34491C9.26339 4.34491 6.57158 4.34491 3.88095 4.34491C3.50382 4.34491 3.23864 4.37674 3.24454 4.86701C3.26339 6.55705 3.25632 8.24592 3.24454 9.93478C3.24454 10.266 3.38007 10.438 3.69946 10.5111C6.1367 11.0674 8.58572 11.5023 11.0913 11.5753C14.1367 11.6625 17.1184 11.23 20.0731 10.5394C20.4973 10.4404 20.6623 10.2589 20.6553 9.824C20.6376 8.23295 20.6246 6.64191 20.6612 5.05087C20.6741 4.46159 20.4537 4.33077 19.9081 4.33549C17.2575 4.35906 14.6058 4.34609 11.954 4.34609V4.34491ZM11.954 18.92C14.6435 18.92 17.3341 18.92 20.0236 18.92C20.5244 18.92 20.6541 18.6843 20.6612 18.2282C20.6682 17.7721 20.4914 17.5942 20.0377 17.6119C19.4879 17.638 18.9371 17.6341 18.3877 17.6001C17.9175 17.5673 17.4782 17.3542 17.1612 17.0054C16.8443 16.6565 16.6743 16.1988 16.6866 15.7276C16.6989 15.2565 16.8926 14.8082 17.2273 14.4764C17.562 14.1446 18.0119 13.9548 18.4832 13.9466C19.0524 13.9301 19.6217 13.9348 20.1909 13.9466C20.5138 13.9466 20.6553 13.8063 20.6505 13.4846C20.6435 13.0132 20.6258 12.5417 20.6576 12.0703C20.6918 11.5659 20.5574 11.4127 20.0294 11.5659C17.5427 12.2907 14.9817 12.5347 12.4066 12.5665C9.49203 12.603 6.60223 12.3485 3.78431 11.5459C3.41543 11.441 3.22686 11.4858 3.24807 11.9265C3.27164 12.4368 3.26339 12.9483 3.24807 13.4586C3.23982 13.8122 3.39421 13.9548 3.74188 13.9477C4.27223 13.936 4.80258 13.9383 5.33293 13.9477C6.35827 13.969 7.19739 14.7727 7.21861 15.7486C7.24336 16.7008 6.40187 17.5694 5.3895 17.613C4.86033 17.6366 4.3288 17.6331 3.79963 17.613C3.39893 17.6024 3.23629 17.7627 3.23982 18.1693C3.23982 18.7998 3.33057 18.913 3.99409 18.9142C6.6474 18.9228 9.29953 18.9271 11.9505 18.9271L11.954 18.92ZM11.9623 3.35022H14.2604C16.1827 3.35022 18.1061 3.35022 20.0283 3.35022C20.2699 3.35022 20.5468 3.41504 20.6423 3.0544C20.9263 1.95599 20.3158 1.1204 19.1809 1.11922C14.3536 1.11451 9.5266 1.11451 4.70005 1.11922C3.67471 1.11922 3.27636 1.52229 3.25161 2.53348C3.23157 3.3184 3.25161 3.34433 4.07659 3.34433L11.9623 3.35022ZM4.51148 16.57C4.78608 16.57 5.0595 16.57 5.33646 16.57C5.82674 16.57 6.10723 16.3261 6.14848 15.8334C6.1862 15.3679 5.89156 15.0084 5.38714 14.9707C4.95933 14.9354 4.5268 14.9542 4.09073 14.9542C3.24453 14.9542 3.24454 14.9542 3.24807 15.7875C3.24807 16.5547 3.26575 16.57 4.04006 16.5747L4.51148 16.57ZM19.2987 16.5641C20.7472 16.5712 20.7472 16.5712 20.6458 15.4021C20.6458 15.3632 20.6458 15.3243 20.6399 15.2842C20.6432 15.2398 20.6368 15.1953 20.6211 15.1537C20.6054 15.112 20.5808 15.0743 20.5491 15.0431C20.5173 15.012 20.4792 14.9881 20.4373 14.9731C20.3954 14.9582 20.3507 14.9525 20.3064 14.9566C19.6806 14.9566 19.0501 14.9248 18.4302 14.9837C17.9965 15.0238 17.7313 15.3302 17.7525 15.7969C17.7761 16.2836 18.0365 16.5523 18.535 16.5618C18.7896 16.57 19.0442 16.5629 19.2987 16.5629V16.5641ZM6.96758 20.8977C6.96758 19.9949 6.96758 19.9949 6.12491 19.9925C4.9994 19.9925 4.9994 19.9925 4.99586 20.7998C4.99586 21.8511 5.00883 21.87 5.95874 21.8711C6.93458 21.8735 6.96522 21.8429 6.96758 20.8977ZM17.9022 19.9878C16.931 19.9878 16.931 19.9878 16.931 20.8234C16.931 21.844 16.9523 21.8676 17.9281 21.8664C18.8815 21.8664 18.9039 21.8429 18.9028 20.8647C18.9028 19.9878 18.9028 19.9878 17.9022 19.9878Z" fill="#FA8B02"/>
<path d="M11.9199 17.5385C11.1338 17.5385 10.3489 17.5527 9.56279 17.5385C8.6883 17.5185 8.18153 17.0058 8.14853 16.1408C8.14028 15.9251 8.14264 15.7083 8.14853 15.4926C8.16739 14.5969 8.65531 14.0111 9.53804 13.9888C11.1464 13.9471 12.7571 13.9471 14.3701 13.9888C15.2528 14.0111 15.7419 14.5957 15.7596 15.4926C15.7596 15.7283 15.769 15.964 15.7596 16.1997C15.716 16.9964 15.2104 17.4961 14.4043 17.5409C14.3654 17.5409 14.3253 17.5409 14.2864 17.5409L11.9199 17.5385ZM12.0095 15.0447C11.2658 15.0447 10.5221 15.0577 9.77846 15.0447C9.27404 15.0329 9.13969 15.2934 9.14676 15.7413C9.15383 16.1667 9.17387 16.5391 9.74546 16.5368C11.2139 16.5305 12.682 16.5305 14.1497 16.5368C14.7189 16.5368 14.7461 16.1726 14.7519 15.7448C14.7519 15.2993 14.6341 15.0318 14.1238 15.0447C13.4202 15.0577 12.7142 15.0447 12.0095 15.0447Z" fill="#FA8B02"/>
</svg>
