<svg width="24" height="15" viewBox="0 0 24 15" fill="none" xmlns="http://www.w3.org/2000/svg">
<path d="M23.9996 14.0815L24.0996 14.0795C24.0798 13.0896 24.082 12.0995 24.0996 11.1092V11.1091C24.1031 10.9059 24.0639 10.7438 23.961 10.6171C23.8599 10.4925 23.709 10.417 23.5225 10.3598C22.1709 9.93805 21.3598 8.85136 21.3491 7.52667C21.3385 6.17591 22.1496 5.06814 23.5215 4.64006C23.7309 4.57564 23.8839 4.4858 23.98 4.34649C24.0757 4.20792 24.1036 4.03669 24.0996 3.83538V3.83534C24.0864 3.18681 24.0891 2.5395 24.0918 1.89092C24.093 1.62209 24.0941 1.35303 24.0941 1.08358C24.0941 0.900155 24.0927 0.752527 24.0776 0.637826C24.0626 0.523163 24.0321 0.423383 23.9592 0.350005C23.8862 0.276566 23.7866 0.245321 23.6715 0.229805C23.5564 0.214286 23.408 0.212523 23.223 0.212523H12.0482C11.1345 0.212523 10.2212 0.212973 9.30826 0.213422C6.44021 0.214834 3.57502 0.216244 0.708486 0.203712V0.203711H0.708049C0.44023 0.203711 0.224771 0.24487 0.0824992 0.382091C-0.0615937 0.52107 -0.105363 0.733447 -0.0968742 1.00737L-0.0968613 1.00775C-0.0639181 1.95651 -0.0759773 2.91031 -0.0968975 3.86493L-0.0969215 3.86493V3.86712C-0.0969215 4.05701 -0.0685843 4.21992 0.0226136 4.35233C0.114594 4.48587 0.259469 4.57262 0.457982 4.63451L0.487746 4.53904L0.457738 4.63443C1.8476 5.07164 2.65687 6.15528 2.65687 7.50212C2.65687 8.84895 1.84654 9.93463 0.45258 10.3675L0.451464 10.3679C0.255312 10.4313 0.111517 10.5174 0.0200536 10.6499C-0.0707908 10.7815 -0.0991245 10.9434 -0.099141 11.1338L-0.0991081 11.1356C-0.0814982 12.1075 -0.0749125 13.0795 -0.0990846 14.0489M23.9996 14.0815L24.0996 14.0793C24.1048 14.3158 24.0616 14.5046 23.9317 14.6307C23.8032 14.7556 23.6126 14.7961 23.3817 14.7961H23.3816C15.8032 14.7888 8.22483 14.7888 0.646461 14.7961H0.646364C0.402987 14.7961 0.203678 14.7548 0.0705093 14.6253C-0.0641377 14.4944 -0.107036 14.2975 -0.0990846 14.0489M23.9996 14.0815C24.0095 14.5353 23.8289 14.6961 23.3817 14.6961M23.9996 14.0815C23.9798 13.0901 23.982 12.0988 23.9996 11.1074L23.3817 14.6961M-0.0990846 14.0489C-0.0990807 14.0488 -0.0990767 14.0486 -0.0990728 14.0485L0.00087546 14.0517L-0.0990934 14.0492C-0.0990905 14.0491 -0.0990875 14.049 -0.0990846 14.0489ZM23.3817 14.6961C15.8032 14.6888 8.2248 14.6888 0.646364 14.6961H23.3817ZM1.23383 1.09326L1.23378 1.09326C1.0282 1.09163 0.929726 1.12458 0.87886 1.17605C0.828819 1.22668 0.798773 1.32199 0.807939 1.52171C0.807941 1.52174 0.807942 1.52177 0.807944 1.5218L0.708049 1.52639C0.73779 2.14875 0.732282 2.77441 0.708049 3.39897L1.23383 1.09326ZM1.23383 1.09326C3.10162 1.10717 4.97016 1.10528 6.83792 1.10338C7.48428 1.10273 8.13055 1.10207 8.77666 1.10207C9.38063 1.10207 9.9847 1.10273 10.5888 1.10338C12.462 1.10541 14.3358 1.10745 16.2094 1.08995M1.23383 1.09326L16.2094 1.08995M3.51045 7.04399C3.33426 5.58822 2.53335 4.53367 1.17928 3.95587C1.0262 3.88979 0.9353 3.82315 0.881489 3.74398C0.828544 3.66609 0.802368 3.56248 0.807981 3.40267L20.5838 7.4867M3.51045 7.04399L3.41117 7.05601M3.51045 7.04399L3.41117 7.05601M3.51045 7.04399C3.69223 8.54425 3.20013 9.94577 1.85376 10.6293C1.32018 10.9003 1.04675 11.2065 0.911306 11.5521C0.773954 11.9026 0.772593 12.3073 0.8131 12.7897C0.835787 12.9975 0.835741 13.2071 0.812961 13.4149L0.812628 13.418L0.812582 13.418C0.779091 13.6561 0.818306 13.7636 0.881445 13.8197C0.952641 13.883 1.08713 13.9143 1.32664 13.9132L1.32673 13.9132C4.76939 13.9005 8.21442 13.9009 11.6566 13.9014C13.0033 13.9015 14.3497 13.9017 15.6952 13.9011H15.6953C15.7811 13.9011 15.869 13.9058 15.9543 13.9105L15.966 13.9112C16.0481 13.9158 16.1277 13.9202 16.2054 13.921C16.3695 13.9228 16.5108 13.9078 16.6242 13.8527C16.6656 13.8327 16.687 13.8048 16.6999 13.767C16.7144 13.7245 16.7182 13.6682 16.7147 13.5954C16.7126 13.5517 16.7087 13.5115 16.7046 13.4688C16.7015 13.4356 16.6981 13.4008 16.6953 13.3616C16.6896 13.2804 16.6877 13.1917 16.7055 13.1081C16.7277 13.0016 16.7645 12.8927 16.8373 12.8114C16.9151 12.7248 17.0238 12.6805 17.163 12.6873C17.3027 12.6941 17.4084 12.7504 17.4784 12.8443C17.5449 12.9335 17.5716 13.0465 17.5795 13.1564M3.41117 7.05601C3.23933 5.63615 2.46166 4.61174 1.13984 4.04777L3.41117 7.05601ZM17.5795 13.1564C17.5914 13.3071 17.5936 13.4584 17.5862 13.6094L17.5862 13.6107C17.5783 13.7383 17.5972 13.8059 17.628 13.8427C17.6563 13.8765 17.7153 13.9082 17.8539 13.9077C19.5432 13.8989 21.2325 13.8989 22.9218 13.9077C23.058 13.9076 23.1191 13.8808 23.1499 13.8485C23.1815 13.8153 23.205 13.7518 23.2035 13.618C23.1935 12.9026 23.1924 12.1848 23.2035 11.4701C23.2033 11.3525 23.1773 11.2833 23.1366 11.2331C23.0932 11.1795 23.0236 11.1353 22.9114 11.0869C22.1264 10.7504 21.5168 10.2788 21.1044 9.67391C20.6918 9.06869 20.481 8.33642 20.4838 7.48637M17.5795 13.1564C17.5794 13.1563 17.5794 13.1562 17.5794 13.156L17.4797 13.1639L17.5795 13.1568C17.5795 13.1567 17.5795 13.1566 17.5795 13.1564ZM20.4838 7.48637L20.5838 7.4867M20.4838 7.48637C20.4838 7.48648 20.4838 7.48659 20.4838 7.4867H20.5838M20.4838 7.48637C20.4839 6.64777 20.697 5.9237 21.1076 5.3254C21.518 4.72735 22.1215 4.26094 22.8929 3.93052M20.5838 7.4867C20.5838 5.84434 21.4177 4.67122 22.9322 4.02243M22.8929 3.93052L22.9322 4.02243M22.8929 3.93052C22.8929 3.93051 22.8929 3.93051 22.8929 3.93051L22.9322 4.02243M22.8929 3.93052C23.0295 3.87196 23.1034 3.81188 23.1455 3.74445C23.1879 3.67666 23.2071 3.5872 23.2046 3.45071C23.1903 2.78932 23.1825 2.1262 23.2046 1.46248L23.2046 1.4622C23.211 1.28626 23.1797 1.20618 23.1362 1.16499C23.0906 1.12174 23.0041 1.0944 22.8299 1.09656L22.8298 1.09656C22.0545 1.10502 21.2766 1.10419 20.4996 1.10337C19.862 1.1027 19.2251 1.10202 18.5908 1.10648L18.5901 1.10648C18.4987 1.10648 18.4051 1.09761 18.3157 1.08849C18.3066 1.08756 18.2974 1.08662 18.2883 1.08569C18.2073 1.07736 18.1298 1.0694 18.0541 1.06662C17.8855 1.06044 17.7459 1.08126 17.6344 1.16719L17.6343 1.16725C17.5708 1.21613 17.5532 1.29692 17.5617 1.43782C17.5641 1.47868 17.5678 1.51541 17.5717 1.55427C17.5749 1.58556 17.5782 1.61824 17.5811 1.65558C17.5869 1.73125 17.5895 1.8133 17.5761 1.89228M22.9322 4.02243L17.4775 1.87558M17.5761 1.89228L17.4775 1.87558M17.5761 1.89228C17.5761 1.89219 17.5762 1.8921 17.5762 1.89202L17.4775 1.87558M17.5761 1.89228C17.5576 2.00357 17.5202 2.11307 17.4451 2.19442C17.3662 2.27989 17.2564 2.32278 17.1195 2.31809M17.4775 1.87558C17.4434 2.08046 17.3476 2.22586 17.1228 2.21815M17.1195 2.31809L17.1228 2.21815M17.1195 2.31809C17.1195 2.31809 17.1194 2.31809 17.1194 2.31809L17.1228 2.21815M17.1195 2.31809C16.9972 2.31397 16.8979 2.269 16.8269 2.1895C16.7587 2.11323 16.7241 2.01373 16.7101 1.91105C16.6888 1.79356 16.6841 1.67364 16.6962 1.55483L16.6967 1.55011L16.6968 1.55012C16.7305 1.32517 16.6909 1.22656 16.6316 1.17574C16.563 1.1169 16.434 1.08831 16.2094 1.08995M17.1228 2.21815L16.2086 0.989956L16.2095 1.08995C16.2095 1.08995 16.2095 1.08995 16.2094 1.08995M0.713557 13.404C0.644161 13.8975 0.849043 14.0154 1.3271 14.0132L1.80846 10.5401C0.709151 11.0986 0.632044 11.83 0.713557 12.7993C0.735588 13.0003 0.735588 13.2031 0.713557 13.404Z" fill="#FA8B02" stroke="#FA8B02" stroke-width="0.2"/>
<path d="M6.47155 11.1901L6.48599 11.1931L6.50069 11.1918C6.74118 11.1711 6.88274 11.0243 6.99288 10.9101C7.00862 10.8938 7.02372 10.8781 7.03837 10.8636L7.0387 10.8633C8.17983 9.7214 9.32133 8.57953 10.4632 7.43766C11.3333 6.56972 12.2039 5.70324 13.0747 4.83823L13.0747 4.83823C13.1597 4.75388 13.2497 4.64831 13.2839 4.52668C13.3017 4.46335 13.3046 4.39525 13.2839 4.32532C13.2634 4.25602 13.2217 4.19129 13.1603 4.13093C13.0355 4.00811 12.901 3.96991 12.7666 4.00326C12.6441 4.03368 12.5373 4.12034 12.4492 4.20717L12.3324 4.3164L12.3323 4.31636L12.33 4.31871C10.3843 6.26217 8.43939 8.20709 6.4952 10.1535C6.36125 10.2646 6.24447 10.395 6.14866 10.5404L6.14826 10.5401L6.14367 10.5488C6.05813 10.7113 6.04395 10.8628 6.12196 10.9858C6.19507 11.101 6.33134 11.1606 6.47155 11.1901Z" fill="#FA8B02" stroke="#FA8B02" stroke-width="0.2"/>
<path d="M9.10687 5.29815L9.10687 5.29749C9.10795 5.07802 9.06564 4.8605 8.98236 4.65744C8.89909 4.45438 8.77649 4.26978 8.62163 4.11426C8.46676 3.95874 8.28268 3.83537 8.07997 3.75124C7.87762 3.66726 7.66069 3.62403 7.44162 3.62403C7.22278 3.61922 7.00514 3.65763 6.80116 3.73706C6.59682 3.81663 6.41022 3.93581 6.25209 4.08773C6.09396 4.23966 5.96741 4.42134 5.87972 4.62233C5.79203 4.82332 5.74493 5.03966 5.74113 5.25892H5.74113L5.74112 5.2595C5.73858 5.4805 5.7796 5.69983 5.86183 5.90498C5.94406 6.11013 6.06589 6.29707 6.22036 6.45513C6.37484 6.6132 6.55893 6.73929 6.76213 6.8262C6.96534 6.91312 7.18367 6.95916 7.40467 6.9617C7.62567 6.96424 7.845 6.92322 8.05015 6.84099C8.2553 6.75876 8.44224 6.63694 8.6003 6.48246C8.75837 6.32799 8.88445 6.14389 8.97137 5.94069C9.05829 5.73748 9.10433 5.51915 9.10687 5.29815ZM7.7125 6.0213C7.61638 6.05882 7.5138 6.07705 7.41063 6.07493C7.20226 6.07065 7.00413 5.98378 6.85982 5.83342C6.7155 5.68306 6.63683 5.48153 6.64111 5.27317C6.64538 5.0648 6.73226 4.86667 6.88262 4.72236C7.03298 4.57805 7.23451 4.49937 7.44287 4.50365C7.54604 4.50577 7.64779 4.52819 7.7423 4.56962C7.8368 4.61106 7.92222 4.67071 7.99368 4.74516C8.06514 4.81961 8.12123 4.90741 8.15876 5.00353C8.19628 5.09966 8.21451 5.20224 8.21239 5.30541C8.21027 5.40859 8.18785 5.51033 8.14641 5.60484C8.10498 5.69935 8.04533 5.78477 7.97088 5.85622C7.89643 5.92768 7.80863 5.98377 7.7125 6.0213Z" fill="#FA8B02" stroke="#FA8B02" stroke-width="0.2"/>
<path d="M13.4755 9.68108L13.4755 9.68069C13.4697 9.23884 13.2916 8.81671 12.9792 8.50425C12.6667 8.19178 12.2446 8.0137 11.8027 8.00794V8.00793L11.8019 8.00793C11.5778 8.00686 11.3557 8.05102 11.1491 8.13776C10.9424 8.22451 10.7553 8.35205 10.5991 8.51277C10.4429 8.67348 10.3207 8.86406 10.2398 9.0731C10.1591 9.2817 10.1213 9.5044 10.1285 9.72794C10.1296 9.94671 10.1745 10.1631 10.2605 10.3643C10.3466 10.5659 10.4723 10.7482 10.6301 10.9005C10.7878 11.0528 10.9745 11.172 11.179 11.2509C11.3831 11.3298 11.601 11.367 11.8197 11.3605C12.0385 11.3594 12.2549 11.3152 12.4566 11.2303C12.6587 11.1453 12.842 11.0212 12.996 10.8652C13.1499 10.7091 13.2716 10.5242 13.3539 10.321C13.4362 10.1178 13.4775 9.90031 13.4755 9.68108ZM12.5705 9.66796L12.5705 9.66796L12.5706 9.67083C12.5751 9.77528 12.5585 9.87957 12.5219 9.9775C12.4853 10.0754 12.4295 10.165 12.3576 10.241C12.2858 10.3169 12.1994 10.3777 12.1036 10.4196C12.0083 10.4614 11.9055 10.4837 11.8014 10.4852C11.5973 10.4822 11.4019 10.4019 11.2546 10.2604C11.1072 10.1189 11.0191 9.92665 11.008 9.72262C11.0042 9.61785 11.0215 9.51339 11.0589 9.41545C11.0964 9.31726 11.1533 9.22764 11.2262 9.15197C11.2992 9.0763 11.3866 9.01612 11.4834 8.97504C11.5801 8.93396 11.6841 8.91282 11.7892 8.91292L11.7911 8.91288C11.8919 8.91108 11.9921 8.9292 12.0859 8.9662C12.1797 9.00321 12.2652 9.05837 12.3376 9.12853C12.4101 9.19868 12.4679 9.28245 12.5079 9.37502C12.5478 9.46759 12.5691 9.56714 12.5705 9.66796Z" fill="#FA8B02" stroke="#FA8B02" stroke-width="0.2"/>
<path d="M17.5875 6.95812H17.5874V6.95919V6.96027V6.96134V6.96241V6.96348V6.96455V6.96562V6.96669V6.96777V6.96884V6.96991V6.97098V6.97205V6.97312V6.97419V6.97527V6.97634V6.97741V6.97848V6.97955V6.98062V6.98169V6.98277V6.98384V6.98491V6.98598V6.98705V6.98812V6.98919V6.99027V6.99134V6.99241V6.99348V6.99455V6.99562V6.99669V6.99777V6.99884V6.99991V7.00098V7.00205V7.00312V7.00419V7.00527V7.00634V7.00741V7.00848V7.00955V7.01062V7.0117V7.01277V7.01384V7.01491V7.01598V7.01705V7.01812V7.0192V7.02027V7.02134V7.02241V7.02348V7.02455V7.02563V7.0267V7.02777V7.02884V7.02991V7.03098V7.03206V7.03313V7.0342V7.03527V7.03634V7.03741V7.03849V7.03956V7.04063V7.0417V7.04277V7.04384V7.04492V7.04599V7.04706V7.04813V7.0492V7.05027V7.05135V7.05242V7.05349V7.05456V7.05563V7.0567V7.05778V7.05885V7.05992V7.06099V7.06206V7.06314V7.06421V7.06528V7.06635V7.06742V7.0685V7.06957V7.07064V7.07171V7.07278V7.07386V7.07493V7.076V7.07707V7.07814V7.07922V7.08029V7.08136V7.08243V7.0835V7.08458V7.08565V7.08672V7.08779V7.08886V7.08994V7.09101V7.09208V7.09315V7.09422V7.0953V7.09637V7.09744V7.09851V7.09959V7.10066V7.10173V7.1028V7.10387V7.10495V7.10602V7.10709V7.10816V7.10924V7.11031V7.11138V7.11245V7.11353V7.1146V7.11567V7.11674V7.11782V7.11889V7.11996V7.12103V7.12211V7.12318V7.12425V7.12532V7.1264V7.12747V7.12854V7.12961V7.13069V7.13176V7.13283V7.13391V7.13498V7.13605V7.13712V7.1382V7.13927V7.14034V7.14141V7.14249V7.14356V7.14463V7.14571V7.14678V7.14785V7.14892V7.15V7.15107V7.15214V7.15322V7.15429V7.15536V7.15644V7.15751V7.15858V7.15966V7.16073V7.1618V7.16287V7.16395V7.16502V7.16609V7.16717V7.16824V7.16931V7.17039V7.17146V7.17253V7.17361V7.17468V7.17575V7.17683V7.1779V7.17897V7.18005V7.18112V7.1822V7.18327V7.18434V7.18542V7.18649V7.18756V7.18864V7.18971V7.19078V7.19186V7.19293V7.19401V7.19508V7.19615V7.19723V7.1983V7.19937V7.20045V7.20152V7.2026V7.20367V7.20474V7.20582V7.20689V7.20797V7.20904V7.21011V7.21119V7.21226V7.21334V7.21441V7.21549V7.21656V7.21763V7.21871V7.21978V7.22086V7.22193V7.22301V7.22408V7.22515V7.22623V7.2273V7.22838V7.22945V7.23053V7.2316V7.23268V7.23375V7.23483V7.2359V7.23698V7.23805V7.23912V7.2402V7.24127V7.24235V7.24342V7.2445V7.24557V7.24665V7.24772V7.2488V7.24987V7.25095V7.25202V7.2531V7.25417V7.25525V7.25632V7.2574V7.25848V7.25955V7.26063V7.2617V7.26278V7.26385V7.26493V7.266V7.26708V7.26815V7.26923V7.2703V7.27138V7.27246V7.27353V7.27461V7.27568V7.27676V7.27783V7.27891V7.27999V7.28106V7.28214V7.28321V7.28429V7.28537V7.28644V7.28752V7.28859V7.28967V7.29075V7.29182V7.2929V7.29397V7.29505V7.29613V7.2972V7.29828V7.29936V7.30043V7.30151V7.30259V7.30366V7.30474V7.30581V7.30689V7.30797V7.30904V7.31012V7.3112V7.31227V7.31335V7.31443V7.31551V7.31658V7.31766V7.31874V7.31981V7.32089V7.32197V7.32304V7.32412V7.3252V7.32628V7.32735V7.32843V7.32951V7.33058V7.33166V7.33274V7.33382V7.33489V7.33597V7.33705V7.33813V7.3392V7.34028V7.34136V7.34244V7.34351V7.34459V7.34567V7.34675V7.34783V7.3489V7.34998V7.35106V7.35214V7.35322V7.35429V7.35537V7.35645V7.35753V7.35861V7.35968V7.36076V7.36184V7.36292V7.364V7.36508V7.36616V7.36723V7.36831V7.36939V7.37047V7.37155V7.37263V7.37371V7.37478V7.37586V7.37694V7.37802V7.3791V7.38018V7.38126V7.38234V7.38342V7.3845V7.38557V7.38665V7.38773V7.38881V7.38989V7.39097V7.39205V7.39313V7.39421V7.39529V7.39637V7.39745V7.39853V7.39961V7.40069V7.40177V7.40285V7.40393V7.40501V7.40609V7.40717V7.40825V7.40933V7.41041V7.41149V7.41257V7.41365V7.41473V7.41581V7.41689V7.41797V7.41905V7.42013V7.42121V7.42229V7.42337V7.42445V7.42553V7.42661V7.42769V7.42877V7.42986V7.43094V7.43202V7.4331V7.43418V7.43526V7.43634V7.43742V7.4385V7.43959V7.44067V7.44175V7.44283V7.44391V7.44499V7.44607V7.44716V7.44824V7.44932V7.4504V7.45148V7.45256V7.45365V7.45473V7.45581V7.45689V7.45797V7.45906V7.46014V7.46122V7.4623V7.46338V7.46447V7.46555V7.46663V7.46771V7.4688V7.46988V7.47096V7.47204V7.47313V7.47421V7.47529V7.47638V7.47746V7.47854V7.47962V7.48071V7.48179V7.48287V7.48396V7.48504V7.48612V7.48721V7.48829V7.48937V7.49046V7.49154V7.49262V7.49371V7.49479V7.49587V7.49696V7.49804V7.49913V7.50021V7.50129V7.50238V7.50346V7.50455V7.50563V7.50671V7.5078V7.50888V7.58526L17.5759 7.58841C17.5765 7.6269 17.5773 7.66605 17.5782 7.70563C17.5811 7.84242 17.5842 7.98425 17.5751 8.12133C17.5673 8.23937 17.5253 8.35237 17.444 8.43368C17.3606 8.51709 17.2442 8.55846 17.1083 8.54466C16.9754 8.53116 16.8711 8.47418 16.8015 8.38217C16.7338 8.29282 16.7059 8.18009 16.7034 8.06524M17.5875 6.95812L16.7034 8.06512C16.7034 8.06516 16.7034 8.0652 16.7034 8.06524M17.5875 6.95812L17.5874 6.95521M17.5875 6.95812L17.5874 6.95521M16.7034 8.06524C16.6946 7.69813 16.6957 7.33127 16.7034 6.96585M16.7034 8.06524L16.7034 6.96694C16.7034 6.96657 16.7034 6.96621 16.7034 6.96585M16.7034 6.96585C16.7036 6.84405 16.7292 6.71768 16.7988 6.61847M16.7034 6.96585L16.7988 6.61847M17.5874 6.95521C17.5838 6.83061 17.5553 6.70455 17.4829 6.60751C17.4068 6.50554 17.2905 6.447 17.1396 6.44836C16.9869 6.44974 16.8719 6.51409 16.7988 6.61847M17.5874 6.95521L16.7988 6.61847" fill="#FA8B02" stroke="#FA8B02" stroke-width="0.2"/>
<path d="M17.0993 5.42209L17.0988 5.42206C16.9572 5.41457 16.8518 5.35675 16.7835 5.26148C16.7189 5.17134 16.6952 5.05824 16.6892 4.95106C16.6835 4.84762 16.6858 4.75267 16.6896 4.66223C16.6905 4.63914 16.6916 4.61654 16.6926 4.59422C16.6957 4.528 16.6986 4.46425 16.699 4.39772C16.699 4.3345 16.6979 4.26955 16.6969 4.2037C16.6946 4.06816 16.6924 3.9288 16.6991 3.79274C16.7048 3.67923 16.7365 3.56619 16.8083 3.47946C16.8828 3.38955 16.9921 3.33819 17.129 3.33751C17.2645 3.33683 17.376 3.38496 17.4532 3.47283C17.5284 3.55837 17.5626 3.67175 17.5665 3.78868M17.0993 5.42209L17.4665 3.79219M17.0993 5.42209C17.2513 5.42938 17.3738 5.37986 17.4561 5.28299C17.5351 5.19004 17.5662 5.06615 17.5665 4.94176M17.0993 5.42209L17.4665 4.93997M17.5665 3.78868C17.5665 3.78876 17.5665 3.78884 17.5665 3.78892L17.4665 3.79219M17.5665 3.78868C17.5665 3.78861 17.5665 3.78853 17.5664 3.78845L17.4665 3.79219M17.5665 3.78868C17.5808 4.17295 17.5798 4.55806 17.5665 4.94176M17.4665 3.79219C17.4808 4.17442 17.4797 4.55775 17.4665 4.93997M17.5665 4.94176C17.5665 4.94117 17.5665 4.94057 17.5665 4.93997H17.4665M17.5665 4.94176C17.5665 4.94232 17.5665 4.94287 17.5665 4.94343L17.4665 4.93997" fill="#FA8B02" stroke="#FA8B02" stroke-width="0.2"/>
<path d="M17.5784 11.2153L17.5784 11.2153L17.5785 11.2135C17.5846 11.0861 17.5825 10.9575 17.5805 10.8336C17.5796 10.7739 17.5786 10.7152 17.5786 10.6583C17.5789 10.6068 17.5797 10.5552 17.5804 10.5036C17.5825 10.3564 17.5846 10.2084 17.5763 10.0587C17.5702 9.95012 17.5451 9.83754 17.4786 9.74857C17.4093 9.6559 17.3042 9.601 17.1658 9.5934C17.1068 9.58626 17.0468 9.59203 16.9902 9.61036C16.9322 9.62911 16.8791 9.66055 16.8347 9.70237C16.7904 9.74419 16.7559 9.79536 16.7338 9.85217C16.7124 9.90722 16.7031 9.96622 16.7066 10.0251C16.6935 10.4259 16.6935 10.8271 16.7068 11.2286L16.7067 11.2286L16.7069 11.2308C16.7132 11.3466 16.7487 11.459 16.8247 11.5432C16.9029 11.6298 17.0147 11.6761 17.1502 11.6733C17.287 11.6706 17.3949 11.6181 17.4686 11.5278C17.5395 11.4408 17.571 11.3282 17.5784 11.2153Z" fill="#FA8B02" stroke="#FA8B02" stroke-width="0.2"/>
</svg>
