<svg width="10" height="25" viewBox="0 0 10 25" fill="none" xmlns="http://www.w3.org/2000/svg">
<path d="M5.00952 0.5C5.357 0.5 5.70448 0.5 6.053 0.5C6.52987 0.509376 6.81057 0.769823 6.83978 1.22925C6.869 1.68868 6.90135 2.1356 6.57787 2.56586C6.29926 2.9357 6.47352 3.35241 6.77926 3.69203C7.41996 4.39941 8.03978 5.12761 8.693 5.82353C8.95303 6.09268 9.15643 6.4111 9.29121 6.76001C9.42598 7.10892 9.48939 7.48124 9.4777 7.85501C9.46517 9.98963 9.47143 12.1263 9.4777 14.2578C9.47886 14.7445 9.38161 15.2264 9.19178 15.6747C8.51352 17.2915 8.50204 18.9167 9.19178 20.5304C9.56848 21.4159 9.53091 22.3327 9.42761 23.2391C9.39221 23.5736 9.23274 23.8828 8.98055 24.1058C8.72836 24.3289 8.4017 24.4497 8.06483 24.4444C7.15596 24.4569 6.22413 24.6121 5.37161 24.085C5.07735 23.9037 4.72883 23.9944 4.42309 24.16C3.52361 24.6486 2.5563 24.5017 1.6203 24.3819C0.956652 24.3027 0.546565 23.7318 0.520478 23.0474C0.483956 22.0764 0.520478 21.1336 0.906565 20.1918C1.469 18.8115 1.43457 17.3655 0.895087 15.9726C0.628057 15.2954 0.495166 14.573 0.503782 13.8453C0.526043 11.8506 0.526043 9.85524 0.503782 7.85918C0.491058 7.48643 0.553605 7.11493 0.687698 6.76681C0.821792 6.4187 1.02469 6.10109 1.2843 5.8329C1.93543 5.13387 2.56152 4.41295 3.19491 3.69828C3.59978 3.2399 3.60083 2.92215 3.29926 2.40334C3.01857 1.92516 3.05926 1.39906 3.24083 0.900046C3.34517 0.618764 3.61439 0.504167 3.91804 0.503125L5.00952 0.5ZM1.33856 21.1013C1.5337 21.1149 1.6683 21.1295 1.80291 21.1336C2.0617 21.142 2.32465 21.1711 2.31213 21.5076C2.30274 21.8035 2.05648 21.8837 1.82274 21.841C1.21857 21.7306 1.16535 22.0681 1.21126 22.5234C1.23004 22.7119 1.21126 22.9057 1.23526 23.0943C1.27074 23.3974 1.45022 23.6704 1.73196 23.6964C2.51874 23.7673 3.32952 23.9339 4.08187 23.5433C4.59213 23.2787 5.13891 23.1464 5.62726 23.4328C6.39944 23.885 7.21126 23.7454 8.01578 23.7454C8.48326 23.7454 8.73578 23.4422 8.76813 22.9776C8.78274 22.7536 8.75039 22.5244 8.77752 22.3015C8.82448 21.9285 8.67317 21.8379 8.31317 21.842C6.8523 21.8618 5.39144 21.8504 3.93057 21.8504C3.79137 21.8546 3.65204 21.8515 3.51317 21.841C3.29822 21.8181 3.14587 21.6993 3.15109 21.4753C3.15109 21.2774 3.30135 21.169 3.49439 21.1472C3.63322 21.136 3.77255 21.1322 3.91178 21.1357C5.33717 21.1357 6.76257 21.1274 8.19004 21.1357C8.53543 21.1357 8.65439 21.0919 8.50309 20.7096C7.78622 18.8969 7.81961 17.0863 8.58344 15.2923C8.64517 15.1491 8.69711 15.0019 8.73891 14.8516C8.83283 14.4995 8.76291 14.3308 8.32152 14.3308C6.20013 14.3537 4.07978 14.3412 1.9563 14.3412C1.12152 14.3412 1.05787 14.437 1.36256 15.2184C1.38135 15.2663 1.40535 15.3132 1.42726 15.36C1.86448 16.3289 2.01265 17.3499 1.98135 18.4052C1.94562 19.3372 1.72724 20.2532 1.33856 21.1013ZM8.64291 11.1762L8.76187 11.1137C8.76187 10.5157 8.76187 9.91671 8.76187 9.31872C8.76187 9.08224 8.59491 9.09786 8.43944 9.08432C8.20674 9.06453 8.02204 8.97077 8.03874 8.70719C8.0523 8.47487 8.23074 8.39466 8.44048 8.38111C8.59596 8.36965 8.765 8.38111 8.76187 8.14775C8.75561 7.71645 8.80778 7.28203 8.58865 6.87573C8.46552 6.64654 8.34865 6.54236 8.06691 6.65904C7.73846 6.80389 7.37813 6.86167 7.02076 6.82682C6.66339 6.79196 6.32108 6.66564 6.02691 6.46006C5.32048 5.98709 4.64952 5.98501 3.94726 6.46006C3.38378 6.8424 2.75248 6.91011 2.09926 6.73717C1.52013 6.58507 1.35004 6.67883 1.24778 7.27161C1.2123 7.47997 1.23422 7.68833 1.20604 7.89668C1.15074 8.29777 1.33022 8.39362 1.709 8.38945C3.27422 8.37174 4.83943 8.38111 6.40465 8.38216C6.56065 8.3785 6.71673 8.38371 6.87213 8.39778C7.06517 8.41966 7.19978 8.5228 7.20291 8.73115C7.2056 8.77499 7.19934 8.81891 7.1845 8.86025C7.16966 8.9016 7.14656 8.9395 7.1166 8.97165C7.08664 9.00381 7.05044 9.02954 7.01021 9.0473C6.96998 9.06505 6.92655 9.07446 6.88257 9.07494C6.72722 9.08992 6.57111 9.09548 6.41509 9.09161C4.86865 9.09161 3.32222 9.11141 1.77683 9.08119C1.29996 9.06765 1.18413 9.21871 1.19874 9.66772C1.23109 10.6553 1.20604 11.6471 1.2123 12.6337C1.2123 12.7775 1.15283 12.9462 1.32396 13.0994C1.88639 12.6118 2.44674 12.1274 3.00291 11.6409C3.30552 11.3742 3.69891 11.1304 4.04013 11.3346C4.66622 11.7065 4.93752 11.3044 5.27978 10.9512C5.52083 10.7022 5.76083 10.4511 6.01648 10.2157C6.57996 9.69481 7.1643 9.69481 7.72361 10.2157C8.04604 10.522 8.3403 10.8554 8.64291 11.1762ZM7.86135 5.97459C7.29787 5.3391 6.78135 4.75882 6.26691 4.17542C6.07178 3.95456 5.82239 3.72329 5.83178 3.42742C5.85474 2.65337 5.37578 2.65337 4.83109 2.70546C4.74433 2.7138 4.65697 2.7138 4.57022 2.70546C4.33752 2.68567 4.21022 2.77005 4.21439 3.018C4.22274 3.52118 3.96187 3.90143 3.64048 4.25668C3.13543 4.81612 2.63978 5.38389 2.11804 5.9725C2.66796 6.21941 3.1323 6.15586 3.56013 5.86833C4.517 5.21825 5.4603 5.22033 6.41717 5.86833C6.84604 6.16315 7.30935 6.22357 7.86135 5.97459ZM7.51074 13.6265C7.901 13.6265 8.17857 13.6265 8.45613 13.6265C8.56048 13.6265 8.66483 13.6421 8.73996 13.5421C8.8443 13.3952 8.74935 12.2347 8.60848 12.093C8.14622 11.6242 7.6777 11.1616 7.21126 10.698C7.03283 10.5199 6.82309 10.4293 6.61648 10.6241C6.16361 11.0533 5.72848 11.5002 5.28604 11.9388C5.1817 12.043 5.15352 12.1545 5.27248 12.2514C5.98726 12.8295 6.3817 13.9536 7.51074 13.6265ZM1.84883 13.5796H5.53544C5.01891 13.0504 4.55039 12.5545 4.061 12.0805C3.90761 11.9315 3.69787 11.9763 3.53926 12.1138C3.00187 12.5764 2.47074 13.0431 1.84883 13.5838V13.5796ZM5.00117 1.98975C5.2777 1.98975 5.55422 1.97725 5.83074 1.98975C6.14378 2.00642 6.14378 1.81994 6.149 1.59179C6.15422 1.36364 6.11665 1.19279 5.81926 1.20112C5.30378 1.21779 4.78204 1.21883 4.2603 1.20216C3.95874 1.19279 3.83039 1.27821 3.82726 1.60742C3.82726 1.95433 3.98796 2.00955 4.27178 1.99392C4.51596 1.97934 4.75909 1.9908 5.00117 1.98975Z" fill="#FA8B02" stroke="#FA8B02" stroke-width="0.2"/>
</svg>
