<svg width="22" height="25" viewBox="0 0 22 25" fill="none" xmlns="http://www.w3.org/2000/svg">
<path d="M11.0008 24.4996H1.3015C0.467148 24.4996 0.258561 24.2545 0.207457 23.416C0.109421 21.6795 0.636103 20.2058 1.92413 19.0127C2.44559 18.5309 3.06301 18.2201 3.69711 17.9302C4.78774 17.4324 5.91629 17.0222 7.07205 16.7037C7.4256 16.5994 7.60707 16.4294 7.66756 16.0852C7.7218 15.7723 7.79585 15.473 7.85216 15.1664C8.01069 14.2903 7.89805 13.5467 7.05432 13.0044C6.45463 12.6185 6.1647 11.9906 6.20641 11.2543C6.22206 10.9915 6.13341 10.8622 5.88102 10.7569C5.0644 10.4179 4.62115 9.79005 4.6295 8.89626C4.63471 8.02854 5.05502 7.40486 5.85807 7.07425C6.11568 6.96996 6.1647 6.85941 6.12194 6.58199C6.01764 5.89782 5.759 5.3774 5.04041 5.16777C4.81097 5.10207 4.60342 4.95918 4.39067 4.83925C3.76491 4.48986 3.41135 3.95275 3.41031 3.23417C3.41031 2.4916 3.77429 1.94197 4.42925 1.59989C5.3679 1.10867 6.38893 0.893826 7.42352 0.75303C10.1456 0.383831 12.8624 0.401561 15.5657 0.925114C16.2507 1.04858 16.9149 1.26765 17.5389 1.5759C18.2179 1.92007 18.6038 2.47074 18.6027 3.23521C18.6027 3.97674 18.2283 4.52011 17.5754 4.86636C17.2229 5.05409 16.8704 5.24495 16.5054 5.40452C16.3835 5.44876 16.2761 5.52568 16.195 5.62684C16.1139 5.72801 16.0622 5.84954 16.0455 5.97813C15.9964 6.26807 15.8369 6.56634 15.8734 6.83751C15.9099 7.10867 16.3145 7.0972 16.5315 7.25468C17.1416 7.70627 17.4315 8.29762 17.3804 9.0527C17.3272 9.83281 16.9288 10.4085 16.2207 10.712C15.8911 10.8528 15.7858 11.0145 15.7983 11.3597C15.8254 12.0543 15.4656 12.5684 14.9702 13.0284C14.6573 13.312 14.1817 13.482 14.1358 13.9743C14.0547 14.8082 14.1664 15.6497 14.4623 16.4335C14.5436 16.6421 14.7689 16.6369 14.9452 16.6932C16.3364 17.1323 17.735 17.563 19.0126 18.2848C21.4437 19.6593 21.9453 21.6221 21.7733 23.7852C21.7336 24.2837 21.3863 24.4975 20.9066 24.4996C19.8977 24.4996 18.8895 24.4996 17.8821 24.4996H11.0008ZM6.21476 7.79388C5.62029 8.06608 5.38875 8.46344 5.40753 8.99012C5.42526 9.49803 5.8247 10.0164 6.32531 10.0539C6.97088 10.1029 7.05536 10.4627 7.00426 10.9686C6.96188 11.2625 7.00228 11.5625 7.12092 11.8348C7.23956 12.1071 7.43175 12.3409 7.67591 12.51C8.08443 12.8062 8.46338 13.1412 8.80749 13.5102C9.53755 14.332 10.424 14.6418 11.5076 14.5072C11.8675 14.4634 12.1824 14.3863 12.4557 14.1443C13.0554 13.6155 13.6394 13.067 14.2673 12.5736C14.8263 12.1346 15.0818 11.6058 15.0036 10.905C14.9514 10.4304 15.0578 10.1144 15.6439 10.0643C16.1727 10.0205 16.5669 9.50325 16.6066 8.97865C16.642 8.50412 16.3573 8.08068 15.8525 7.86688C15.7576 8.064 15.8223 8.27258 15.8035 8.47387C15.7806 8.71375 15.6679 8.87436 15.4197 8.89104C15.1715 8.90773 15.0369 8.74608 15.015 8.50724C14.9925 8.31719 14.9897 8.12531 15.0067 7.93467C15.0557 7.5248 14.9024 7.44345 14.504 7.49664C12.2617 7.79679 9.99011 7.80871 7.74474 7.5321C7.01469 7.44449 7.01469 7.44345 7.00322 8.21001C7.00427 8.32899 6.99625 8.44788 6.97923 8.56565C6.96498 8.65595 6.91896 8.7382 6.84946 8.79759C6.77996 8.85698 6.69154 8.88961 6.60012 8.88961C6.5087 8.88961 6.42029 8.85698 6.35079 8.79759C6.28129 8.7382 6.23527 8.65595 6.22102 8.56565C6.20467 8.3087 6.20259 8.05105 6.21476 7.79388ZM17.7913 3.22165C17.7913 2.77111 17.5494 2.477 17.1656 2.28301C16.6654 2.03851 16.1357 1.85973 15.5897 1.75112C13.0345 1.19628 10.4564 1.20045 7.87198 1.49143C6.83739 1.60824 5.80906 1.80431 4.86207 2.2705C4.23631 2.58338 4.00165 3.22896 4.35625 3.73686C4.75465 4.30735 5.44299 4.45023 6.02494 4.73599C6.08335 4.76415 6.21163 4.67342 6.29506 4.61919C6.85857 4.27144 7.48642 4.04087 8.14106 3.94128C9.743 3.64926 11.3596 3.65656 12.9667 3.8057C13.9575 3.89748 14.9274 4.0852 15.767 4.67446C15.8224 4.71557 15.8891 4.73845 15.9581 4.73994C16.027 4.74144 16.0947 4.72147 16.1518 4.68281C16.5356 4.48256 16.9299 4.29901 17.3074 4.08625C17.4609 4.00175 17.5876 3.87599 17.6733 3.72319C17.759 3.5704 17.8003 3.39667 17.7924 3.22165H17.7913ZM10.9966 6.89278C12.2109 6.93872 13.4266 6.86044 14.625 6.65917C14.8044 6.62892 14.9994 6.64039 15.1089 6.42346C15.5396 5.57243 15.3967 5.20949 14.4925 4.91225C14.378 4.87032 14.2609 4.83549 14.1421 4.80796C12.0763 4.39923 9.95034 4.39923 7.8845 4.80796C7.64597 4.8542 7.41479 4.93243 7.1972 5.04053C6.95524 5.1636 6.57144 5.22305 6.71328 5.64335C6.84886 6.04383 6.71328 6.59137 7.41517 6.6769C8.60933 6.82604 9.79515 6.93346 10.9966 6.89278ZM11.4044 21.4699C11.4044 21.1747 11.4044 20.8796 11.4044 20.5844C11.4044 19.5863 11.8883 19.2568 12.8134 19.6552C14.4143 20.3435 15.4009 21.5512 15.7159 23.2679C15.7889 23.6684 15.9808 23.7372 16.3135 23.6924C16.7536 23.634 16.4877 23.3242 16.5033 23.1261C16.4957 22.9876 16.4668 22.8511 16.4178 22.7214C16.1037 21.4811 15.3735 20.3861 14.3493 19.6193C13.3251 18.8525 12.0687 18.4603 10.7902 18.5083C9.51159 18.5563 8.28819 19.0415 7.32429 19.8829C6.36039 20.7243 5.71436 21.8709 5.49409 23.1313C5.40544 23.6465 5.53685 23.7789 6.01556 23.6965C6.32844 23.6423 6.25022 23.3837 6.28881 23.2095C6.68304 21.4209 7.72597 20.1933 9.44473 19.5655C10.1153 19.3204 10.5815 19.6625 10.6034 20.3769C10.618 20.8462 10.6034 21.3155 10.6034 21.7838C10.6034 22.3647 10.7192 22.978 10.082 23.3545C10.058 23.3658 10.0366 23.3818 10.0189 23.4016C10.0011 23.4213 9.98753 23.4443 9.9788 23.4694C9.97007 23.4944 9.96639 23.5209 9.96799 23.5474C9.96958 23.5739 9.97642 23.5997 9.98809 23.6235C10.0517 23.7278 10.1737 23.6924 10.2728 23.6934C10.7244 23.6934 11.176 23.6997 11.6286 23.6934C11.76 23.6934 11.9415 23.7591 12.0103 23.6194C12.0959 23.4483 11.93 23.3065 11.8132 23.2408C11.419 23.0072 11.3721 22.6557 11.3961 22.2531C11.419 21.9924 11.4044 21.7306 11.4044 21.4699ZM5.48783 18.1982L5.38354 18.0939C4.78385 18.3525 4.16748 18.5809 3.58656 18.8761C1.77916 19.7928 0.923953 21.2748 1.00009 23.3054C1.01052 23.587 1.07831 23.7101 1.38076 23.7049C2.35173 23.6913 3.3227 23.6965 4.29367 23.7049C4.51999 23.7049 4.63263 23.6517 4.65766 23.392C4.70694 22.8554 4.83267 22.3286 5.03103 21.8276C5.12072 21.6044 5.0936 21.5032 4.83496 21.424C4.01104 21.1716 3.85773 20.7127 4.32705 19.9806C4.71189 19.383 5.10195 18.7916 5.48783 18.1982ZM16.4918 18.1513C16.909 18.801 17.3126 19.4028 17.6985 20.0108C18.1428 20.7106 17.977 21.1789 17.1854 21.4209C16.9476 21.4928 16.8725 21.571 16.9685 21.814C17.1711 22.3138 17.2976 22.8411 17.3439 23.3784C17.3689 23.6726 17.5149 23.7018 17.7486 23.6997C18.7018 23.6934 19.6561 23.6903 20.6093 23.6997C20.8961 23.6997 20.991 23.611 21.0046 23.3138C21.1412 20.4687 19.2859 18.8448 16.4918 18.1513ZM8.73136 14.6001C8.65314 15.2363 8.60308 15.8412 8.40909 16.42C8.36842 16.541 8.3632 16.6672 8.51338 16.7245C9.32479 17.0301 10.1351 17.3346 10.9497 17.6308C11.0351 17.6454 11.123 17.633 11.201 17.5954C11.9311 17.3242 12.6611 17.0478 13.3912 16.7725C13.5257 16.7214 13.6676 16.6609 13.6092 16.4805C13.411 15.8777 13.3651 15.2436 13.265 14.6115C11.7454 15.6044 10.2697 15.6221 8.73136 14.6001ZM12.2116 21.5137C12.2586 21.8266 12.1073 22.2135 12.2909 22.5431C12.9459 23.7028 12.9552 23.6976 14.3173 23.6903C14.4039 23.6903 14.4915 23.683 14.577 23.6903C14.916 23.7247 14.9994 23.586 14.9201 23.2616C14.6229 22.0497 13.946 21.1309 12.8426 20.5417C12.246 20.2225 12.2168 20.2507 12.2168 20.9432L12.2116 21.5137ZM9.78994 21.5971C9.78994 21.1977 9.78368 20.9202 9.78994 20.6439C9.79619 20.3675 9.69086 20.308 9.44681 20.4196C8.14836 20.9964 7.37346 21.9924 7.06788 23.3691C7.02095 23.5839 7.08457 23.6986 7.3234 23.6965C7.80732 23.6965 8.29228 23.6965 8.77725 23.6965C8.88154 23.6965 9.01191 23.7049 9.0505 23.5922C9.29246 22.882 10.1195 22.3793 9.79515 21.5971H9.78994ZM7.51425 18.6769C7.30567 18.5006 7.08874 18.3703 6.93647 18.1888C6.71119 17.9208 6.58709 17.9573 6.415 18.2409C6.00617 18.9043 5.56084 19.5457 5.14679 20.2069C5.07379 20.3237 4.80993 20.4822 5.0498 20.6188C5.24691 20.7315 5.51703 20.8566 5.72145 20.5218C6.10629 19.8961 6.63402 19.3913 7.21702 18.946C7.29211 18.8897 7.36303 18.8167 7.51425 18.6811V18.6769ZM15.3832 17.9781C15.2789 17.9687 14.5739 18.6592 14.5947 18.7249C14.6193 18.7878 14.6613 18.8424 14.7157 18.8824C15.3574 19.3586 15.9126 19.9413 16.3573 20.6053C16.5325 20.8723 16.7943 20.7096 16.9643 20.6199C17.1823 20.5072 16.957 20.3529 16.8913 20.2476C16.4658 19.5738 16.0256 18.9084 15.5876 18.243C15.5219 18.1481 15.4426 18.0584 15.3832 17.9823V17.9781ZM12.7759 17.8603C13.6916 18.4245 13.7552 18.4224 14.3601 17.7685C14.4435 17.6788 14.6448 17.5995 14.5342 17.4483C14.4446 17.3284 14.2589 17.318 14.1004 17.3753C13.6655 17.5359 13.2368 17.6955 12.7727 17.8645L12.7759 17.8603ZM9.32479 17.8843C8.77203 17.6851 8.33609 17.5234 7.89805 17.3711C7.74161 17.3169 7.5591 17.3357 7.47358 17.4671C7.40057 17.5808 7.57787 17.6611 7.63628 17.757C7.9721 18.2576 8.38197 18.4151 8.91909 18.0574C9.04924 17.9919 9.18374 17.9354 9.32166 17.8884L9.32479 17.8843Z" fill="#FA8B02"/>
<path d="M11.0008 12.4935C10.7244 12.4935 10.447 12.5081 10.1727 12.4873C10.1245 12.4863 10.077 12.4758 10.0329 12.4564C9.98887 12.437 9.94909 12.409 9.91591 12.3741C9.88273 12.3391 9.85682 12.298 9.83967 12.253C9.82251 12.2079 9.81447 12.16 9.816 12.1118C9.81018 12.0637 9.81445 12.0149 9.82853 11.9685C9.84262 11.9221 9.8662 11.8791 9.89779 11.8423C9.92938 11.8055 9.96827 11.7757 10.012 11.7548C10.0557 11.7339 10.1034 11.7223 10.1518 11.7207C10.7202 11.6999 11.2907 11.6999 11.8591 11.7207C11.9076 11.7225 11.9552 11.7343 11.9989 11.7556C12.0425 11.7769 12.0812 11.8071 12.1124 11.8442C12.1437 11.8814 12.1668 11.9247 12.1803 11.9713C12.1938 12.0179 12.1973 12.0669 12.1908 12.115C12.1922 12.2121 12.1549 12.3059 12.0873 12.3757C12.0197 12.4455 11.9271 12.4856 11.8299 12.4873C11.5546 12.5113 11.2771 12.4935 11.0008 12.4935Z" fill="#FA8B02"/>
<path d="M9.06508 8.11279C9.33415 8.14095 9.73881 8.0085 9.7701 8.52162C9.78366 8.74168 9.23716 9.27984 9.01815 9.28714C8.79913 9.29444 8.20779 8.72917 8.20361 8.51015C8.20361 8.21709 8.42889 8.11279 9.06508 8.11279Z" fill="#FA8B02"/>
<path d="M13.0178 8.11279C13.3307 8.13052 13.7218 8.02102 13.7938 8.50181C13.8261 8.71039 13.216 9.29027 12.9949 9.28922C12.7738 9.28818 12.2419 8.75003 12.2294 8.5331C12.2096 8.21083 12.3962 8.11279 13.0178 8.11279Z" fill="#FA8B02"/>
<path d="M11.0122 10.9227C10.8577 10.9251 10.7032 10.9153 10.5502 10.8935C10.4542 10.881 10.3667 10.8319 10.3059 10.7566C10.2451 10.6812 10.2157 10.5853 10.2238 10.4888C10.2224 10.4408 10.2306 10.3929 10.2479 10.3481C10.2652 10.3033 10.2913 10.2623 10.3246 10.2277C10.3579 10.193 10.3977 10.1653 10.4419 10.1462C10.486 10.1271 10.5334 10.117 10.5815 10.1165C10.8214 10.0988 11.0623 10.104 11.3032 10.105C11.5806 10.105 11.7892 10.2156 11.7788 10.5222C11.7705 10.7923 11.5765 10.9029 11.323 10.9144C11.2187 10.9196 11.1144 10.9144 11.0102 10.9144L11.0122 10.9227Z" fill="#FA8B02"/>
<path d="M11.0467 12.8979C11.1843 12.9052 11.3231 12.8979 11.4639 12.9209C11.5512 12.9281 11.6328 12.9676 11.6927 13.0315C11.7527 13.0955 11.7867 13.1795 11.7882 13.2671C11.8059 13.482 11.6975 13.6541 11.4826 13.6843C11.1923 13.7149 10.8999 13.7205 10.6086 13.701C10.5561 13.7023 10.5039 13.6924 10.4554 13.672C10.407 13.6515 10.3635 13.621 10.3277 13.5824C10.292 13.5438 10.2649 13.4981 10.2483 13.4482C10.2316 13.3984 10.2258 13.3455 10.2311 13.2932C10.2415 13.0533 10.398 12.924 10.6389 12.9146C10.7766 12.9146 10.9142 12.9146 11.0561 12.9146L11.0467 12.8979Z" fill="#FA8B02"/>
</svg>
