<svg width="20" height="20" viewBox="0 0 20 20" fill="none" xmlns="http://www.w3.org/2000/svg">
<path d="M0.857117 5.42855H19.1428M3.14283 0.857117H16.8571C17.4633 0.857117 18.0447 1.09793 18.4734 1.52659C18.902 1.95524 19.1428 2.53662 19.1428 3.14283V16.8571C19.1428 17.4633 18.902 18.0447 18.4734 18.4734C18.0447 18.902 17.4633 19.1428 16.8571 19.1428H3.14283C2.53662 19.1428 1.95524 18.902 1.52659 18.4734C1.09793 18.0447 0.857117 17.4633 0.857117 16.8571V3.14283C0.857117 2.53662 1.09793 1.95524 1.52659 1.52659C1.95524 1.09793 2.53662 0.857117 3.14283 0.857117V0.857117Z" stroke="#FA8B02" stroke-linecap="round" stroke-linejoin="round"/>
<path d="M9.99997 11.1428C10.6312 11.1428 11.1428 10.6312 11.1428 9.99997C11.1428 9.36879 10.6312 8.85712 9.99997 8.85712C9.36879 8.85712 8.85712 9.36879 8.85712 9.99997C8.85712 10.6312 9.36879 11.1428 9.99997 11.1428Z" fill="#FA8B02"/>
<path d="M5.42856 11.1428C6.05975 11.1428 6.57142 10.6312 6.57142 9.99997C6.57142 9.36879 6.05975 8.85712 5.42856 8.85712C4.79738 8.85712 4.28571 9.36879 4.28571 9.99997C4.28571 10.6312 4.79738 11.1428 5.42856 11.1428Z" fill="#FA8B02"/>
<path d="M14.5714 11.1428C15.2026 11.1428 15.7143 10.6312 15.7143 9.99997C15.7143 9.36879 15.2026 8.85712 14.5714 8.85712C13.9403 8.85712 13.4286 9.36879 13.4286 9.99997C13.4286 10.6312 13.9403 11.1428 14.5714 11.1428Z" fill="#FA8B02"/>
<path d="M9.99997 15.7142C10.6312 15.7142 11.1428 15.2026 11.1428 14.5714C11.1428 13.9402 10.6312 13.4285 9.99997 13.4285C9.36879 13.4285 8.85712 13.9402 8.85712 14.5714C8.85712 15.2026 9.36879 15.7142 9.99997 15.7142Z" fill="#FA8B02"/>
<path d="M5.42856 15.7142C6.05975 15.7142 6.57142 15.2026 6.57142 14.5714C6.57142 13.9402 6.05975 13.4285 5.42856 13.4285C4.79738 13.4285 4.28571 13.9402 4.28571 14.5714C4.28571 15.2026 4.79738 15.7142 5.42856 15.7142Z" fill="#FA8B02"/>
<path d="M14.5714 15.7142C15.2026 15.7142 15.7143 15.2026 15.7143 14.5714C15.7143 13.9402 15.2026 13.4285 14.5714 13.4285C13.9403 13.4285 13.4286 13.9402 13.4286 14.5714C13.4286 15.2026 13.9403 15.7142 14.5714 15.7142Z" fill="#FA8B02"/>
</svg>
